<svg width="890" height="258" viewBox="0 0 890 258" fill="none" xmlns="http://www.w3.org/2000/svg">
<path d="M0.5 145L21.5 140L39 132L47.5 145L49.5 139L59 134L67.5 128L76 122L85 117L87 114L89 117L94 119L99 117L108 111L111 108L114 111L117 112L120.5 111L130 104L140.5 99L143 96L146 99L157.5 104L167.5 106L177.5 104L221.5 98L238 92L254 86L270 80L287.5 74L303.5 68L340 62L380.5 56L403.5 50.5L420 41.5L428 35.5L434.5 31L438.5 26L444.5 21.5L463.5 1L478.5 14.5L481.5 29L494.5 38.5L495 44.5L495.5 50.5L497 56.5L498 62.5V68L499.5 74.5V80L501 86L502 92L507 98L511 104.5L515 110L519.5 116L525.5 122L530.5 128L535 134L539.5 140L544 146L546 151.5L548 157.5L549 164L553.5 169.5L556 176L559 182L560 188L571.5 193.5L629 199.5L700 205.5L710.5 211.5L717 217.5L721.5 223.5L727.5 229.5L733 235.5L740 241.5L783.5 247.5L809.5 253.5L889.5 257" stroke="#FC4F4F"/>
</svg>
